<svg width="1600" height="900" viewBox="0 0 1600 900" fill="none" xmlns="http://www.w3.org/2000/svg">
  <defs>
    <linearGradient id="bg" x1="240" y1="0" x2="1040" y2="900" gradientUnits="userSpaceOnUse">
      <stop stop-color="#111A2D"/>
      <stop offset="1" stop-color="#1F6A84"/>
    </linearGradient>
    <linearGradient id="panel" x1="1234" y1="92" x2="1234" y2="775" gradientUnits="userSpaceOnUse">
      <stop stop-color="#273447"/>
      <stop offset="1" stop-color="#315E74"/>
    </linearGradient>
    <filter id="shadow" x="72" y="589" width="955" height="161" filterUnits="userSpaceOnUse" color-interpolation-filters="sRGB">
      <feOffset dy="8"/>
      <feGaussianBlur stdDeviation="3"/>
      <feColorMatrix type="matrix" values="0 0 0 0 0.0206 0 0 0 0 0.0314 0 0 0 0 0.0588 0 0 0 0.45 0"/>
      <feBlend in2="SourceGraphic" result="shape"/>
    </filter>
  </defs>

  <rect width="1600" height="900" fill="url(#bg)"/>

  <g opacity="0.12" stroke="#D8E1E8" stroke-width="2">
    <path d="M-60 68L1610 118"/>
    <path d="M-60 174L1610 224"/>
    <path d="M-60 280L1610 330"/>
    <path d="M-60 386L1610 436"/>
    <path d="M-60 492L1610 542"/>
    <path d="M-60 598L1610 648"/>
    <path d="M-60 704L1610 754"/>
    <path d="M-60 810L1610 860"/>
    <path d="M118 -80L378 980"/>
    <path d="M314 -80L574 980"/>
    <path d="M510 -80L770 980"/>
    <path d="M706 -80L966 980"/>
    <path d="M902 -80L1162 980"/>
    <path d="M1098 -80L1358 980"/>
    <path d="M1294 -80L1554 980"/>
  </g>

  <text x="92" y="128" fill="#F4F5F0" font-family="Arial, Helvetica, sans-serif" font-size="26" letter-spacing="0.5">ALEXBLACK BLOG</text>

  <g filter="url(#shadow)">
    <text x="92" y="654" fill="#F4F5F0" font-family="Arial, Helvetica, sans-serif" font-size="78" font-weight="700">Code as Agent Harness</text>
  </g>
  <text x="92" y="716" fill="#E2E8EC" font-family="Arial, Helvetica, sans-serif" font-size="32">Code execution, tools, feedback loops</text>
  <rect x="92" y="748" width="412" height="8" rx="4" fill="#F6C25B"/>

  <rect x="975" y="95" width="520" height="680" rx="30" fill="url(#panel)" stroke="#8F7C4A" stroke-width="3"/>

  <rect x="1040" y="152" width="188" height="90" rx="18" fill="#F2F1ED"/>
  <text x="1068" y="208" fill="#233045" font-family="Courier New, monospace" font-size="30" font-weight="700">&lt;/&gt;</text>

  <rect x="1260" y="152" width="170" height="90" rx="18" fill="#F2F1ED"/>
  <text x="1286" y="208" fill="#233045" font-family="Courier New, monospace" font-size="28" font-weight="700">Tool()</text>

  <line x1="1228" y1="197" x2="1260" y2="197" stroke="#F6C25B" stroke-width="8" stroke-linecap="round"/>

  <rect x="1118" y="292" width="236" height="268" rx="36" fill="#F2F1ED" stroke="#F6C25B" stroke-width="4"/>
  <rect x="1180" y="360" width="112" height="132" rx="26" fill="#F8BD62"/>
  <text x="1171" y="332" fill="#233045" font-family="Arial, Helvetica, sans-serif" font-size="30" font-weight="700">Sandbox</text>
  <text x="1188" y="585" fill="#233045" font-family="Arial, Helvetica, sans-serif" font-size="28">Run + Fix</text>

  <line x1="1075" y1="258" x2="1075" y2="300" stroke="#F2F1ED" stroke-width="6"/>
  <line x1="1170" y1="258" x2="1170" y2="300" stroke="#F2F1ED" stroke-width="6"/>
  <line x1="1270" y1="258" x2="1270" y2="300" stroke="#F2F1ED" stroke-width="6"/>
  <line x1="1366" y1="258" x2="1366" y2="300" stroke="#F2F1ED" stroke-width="6"/>
  <line x1="1460" y1="258" x2="1460" y2="300" stroke="#F2F1ED" stroke-width="6"/>

  <line x1="1075" y1="579" x2="1075" y2="630" stroke="#F2F1ED" stroke-width="6"/>
  <line x1="1170" y1="579" x2="1170" y2="630" stroke="#F2F1ED" stroke-width="6"/>
  <line x1="1270" y1="579" x2="1270" y2="630" stroke="#F2F1ED" stroke-width="6"/>
  <line x1="1366" y1="579" x2="1366" y2="630" stroke="#F2F1ED" stroke-width="6"/>
  <line x1="1460" y1="579" x2="1460" y2="630" stroke="#F2F1ED" stroke-width="6"/>

  <rect x="1018" y="612" width="156" height="74" rx="18" fill="#F2F1ED"/>
  <text x="1043" y="658" fill="#233045" font-family="Arial, Helvetica, sans-serif" font-size="28" font-weight="700">Prompt</text>

  <rect x="1206" y="612" width="154" height="74" rx="18" fill="#F2F1ED"/>
  <text x="1233" y="658" fill="#233045" font-family="Arial, Helvetica, sans-serif" font-size="28" font-weight="700">Logs</text>

  <rect x="1392" y="612" width="120" height="74" rx="18" fill="#F2F1ED"/>
  <text x="1411" y="658" fill="#233045" font-family="Arial, Helvetica, sans-serif" font-size="28" font-weight="700">Eval</text>

  <line x1="1174" y1="649" x2="1206" y2="649" stroke="#F6C25B" stroke-width="6" stroke-linecap="round"/>
  <line x1="1360" y1="649" x2="1392" y2="649" stroke="#F6C25B" stroke-width="6" stroke-linecap="round"/>
</svg>
